<svg width="168" height="33" viewBox="0 0 168 33" fill="none" xmlns="http://www.w3.org/2000/svg">
<path d="M14.9236 10.5164C14.8964 10.5077 14.8779 10.4827 14.8779 10.4527C14.8779 10.4252 14.8952 10.4002 14.9199 10.389C16.8711 9.61934 18.0164 8.18997 18.0164 5.94347C18.0164 4.12678 17.3573 2.65994 16.0713 1.57667C14.8779 0.589608 13.1525 0.0161133 10.8298 0.0161133H0.782462C0.350504 0.0161133 0 0.372205 0 0.812009V22.0101C0 22.4486 0.350504 22.8047 0.782462 22.8047H11.0779C13.4314 22.8047 15.2839 22.2312 16.602 21.1792C18.0769 20.0322 18.8939 18.3742 18.8939 16.079C18.8939 13.3864 17.3438 11.2923 14.9236 10.5164ZM5.49205 5.27502C5.49205 4.83647 5.84255 4.48038 6.27451 4.48038H10.0424C11.674 4.48038 12.7095 5.30876 12.7095 6.74312C12.7095 8.17748 11.6111 9.0371 10.0103 9.0371H6.27327C5.84132 9.0371 5.49081 8.68101 5.49081 8.24245V5.27627L5.49205 5.27502ZM10.4522 18.2805H6.27698C5.84502 18.2805 5.49451 17.9244 5.49451 17.4858V13.6588C5.49451 13.2202 5.84502 12.8641 6.27698 12.8641H10.3892C12.0837 12.8641 13.4018 13.7887 13.4018 15.6054C13.4018 17.231 12.2726 18.2817 10.4522 18.2817V18.2805Z" fill="black"/>
<path d="M24.6524 0.0161133H20.5537C20.1094 0.0161133 19.749 0.372205 19.749 0.81076V22.0101C19.749 22.4486 20.1094 22.8047 20.5537 22.8047H24.6524C25.0967 22.8047 25.457 22.4486 25.457 22.0101V0.81076C25.457 0.372205 25.0967 0.0161133 24.6524 0.0161133Z" fill="black"/>
<path d="M36.9882 0.141113C30.3632 0.141113 26.1621 4.94023 26.1621 11.3986C26.1621 17.857 30.3645 22.6561 36.9882 22.6561C43.612 22.6561 47.8452 17.857 47.8452 11.3986C47.8452 4.94023 43.6429 0.141113 36.9882 0.141113ZM37.0191 18.3093C33.4918 18.3093 31.6825 15.3206 31.6825 11.3986C31.6825 7.4766 33.4918 4.45669 37.0191 4.45669C40.5463 4.45669 42.3248 7.4741 42.3248 11.3986C42.3248 15.3231 40.5772 18.3093 37.0191 18.3093Z" fill="black"/>
<path d="M63.5915 10.5162C63.5631 10.5075 63.5459 10.4812 63.5459 10.4525C63.5459 10.425 63.5631 10.4 63.5878 10.3888C65.539 9.62037 66.6831 8.18976 66.6831 5.94326C66.6831 4.12657 66.0241 2.66097 64.7368 1.57645C63.5434 0.588143 61.818 0.0146484 59.4953 0.0146484H49.4504C49.0185 0.0146484 48.668 0.37074 48.668 0.809295V22.0086C48.668 22.4472 49.0185 22.8033 49.4504 22.8033H59.7459C62.0994 22.8033 63.9519 22.2298 65.27 21.1777C66.7448 20.0307 67.5618 18.3727 67.5618 16.0787C67.5618 13.3874 66.0117 11.2934 63.5903 10.5162H63.5915ZM54.16 5.27356C54.16 4.835 54.5105 4.47891 54.9425 4.47891H58.7104C60.3432 4.47891 61.3774 5.30729 61.3774 6.74165C61.3774 8.17602 60.279 9.03563 58.6783 9.03563H54.9412C54.5093 9.03563 54.1588 8.67954 54.1588 8.24099V5.27356H54.16ZM59.1189 18.2803H54.9425C54.5105 18.2803 54.16 17.9242 54.16 17.4856V13.6586C54.16 13.22 54.5105 12.8639 54.9425 12.8639H59.0547C60.7492 12.8639 62.0673 13.7885 62.0673 15.6052C62.0673 17.2307 60.9381 18.2828 59.1177 18.2828L59.1189 18.2803Z" fill="black"/>
<path d="M119.069 0.0161133H115.2C114.767 0.0161133 114.415 0.369706 114.415 0.805762V10.7501C114.415 11.486 114.471 13.8912 114.478 14.226C114.478 14.2473 114.46 14.2648 114.439 14.2648C114.425 14.2648 114.411 14.2573 114.405 14.2448C114.287 14.0236 113.202 11.9808 112.875 11.3836L106.44 0.40469C106.299 0.163548 106.043 0.0173627 105.765 0.0173627H101.401C100.968 0.0173627 100.617 0.370955 100.617 0.807011V21.8651C100.617 22.3024 100.969 22.6548 101.401 22.6548H105.27C105.703 22.6548 106.055 22.3012 106.055 21.8651V12.1107C106.055 11.3723 106.001 8.79096 105.992 8.44486C105.992 8.42362 106.009 8.40613 106.03 8.40613C106.044 8.40613 106.057 8.41363 106.064 8.42612C106.18 8.65852 107.3 10.8763 107.657 11.446L114.031 22.2675C114.172 22.5074 114.429 22.6548 114.706 22.6548H119.07C119.504 22.6548 119.854 22.3012 119.854 21.8651V0.805762C119.854 0.368456 119.504 0.0161133 119.07 0.0161133H119.069Z" fill="black"/>
<path d="M132.33 9.69556H132.331C132.121 9.38444 132.156 8.96963 132.412 8.69975L139.369 1.36051C139.848 0.85449 139.491 0.0161133 138.797 0.0161133H134.335C134.119 0.0161133 133.913 0.106073 133.761 0.264753L127.573 6.82808C127.081 7.3491 126.209 6.99801 126.209 6.27958V0.81076C126.209 0.372205 125.856 0.0161133 125.419 0.0161133H121.397C120.96 0.0161133 120.607 0.372205 120.607 0.81076V22.0101C120.607 22.4486 120.96 22.8047 121.397 22.8047H125.419C125.856 22.8047 126.209 22.4486 126.209 22.0101V15.2831C126.209 15.0794 126.288 14.882 126.427 14.7346L127.427 13.6775C127.775 13.3077 128.375 13.3614 128.655 13.785L134.393 22.4524C134.54 22.6735 134.786 22.806 135.05 22.806H139.657C140.291 22.806 140.666 22.0925 140.311 21.5653L132.326 9.69556H132.33Z" fill="black"/>
<path d="M157.757 15.6543L157.76 15.6568C157.76 10.9914 153.976 9.74066 149.78 8.79484C146.404 8.06391 144.67 7.69657 144.67 6.17225C144.67 4.9528 145.964 4.12941 147.918 4.12941C149.713 4.12941 150.945 4.8316 151.393 6.09978C151.521 6.46212 151.843 6.75199 152.24 6.75199H156.179C156.627 6.75199 156.99 6.38716 156.925 5.95735C156.327 1.92914 152.706 0.0424805 148.107 0.0424805C143.062 0.0424805 139.15 2.08532 139.15 6.75074C139.15 11.4162 143.282 12.4844 147.194 13.3678C150.284 14.0987 152.113 14.4661 152.113 16.204C152.113 17.8508 150.315 18.4905 148.486 18.4905C146.096 18.4905 144.659 17.7633 144.196 16.0504C144.095 15.6755 143.768 15.3794 143.366 15.3794H139.263C138.82 15.3794 138.461 15.733 138.512 16.1591C139.025 20.4734 142.856 22.7586 148.517 22.7586C153.721 22.7586 157.758 20.2272 157.758 15.6543H157.757Z" fill="black"/>
<path d="M160.939 6.01109H161.643C161.807 6.01109 161.938 5.87615 161.938 5.71122V4.93157C161.938 4.76539 162.071 4.6317 162.236 4.6317H162.381C162.697 4.6317 162.882 4.77539 162.934 5.06526C162.955 5.16147 162.971 5.28891 162.981 5.45134C162.992 5.61127 163.002 5.73996 163.013 5.83742C163.022 5.8774 163.032 5.91238 163.043 5.93987C163.065 5.99485 163.124 6.01359 163.181 6.01359H164.315C164.346 6.01359 164.372 5.9886 164.372 5.95611C164.372 5.93237 164.356 5.91238 164.339 5.89739C164.303 5.8674 164.277 5.81493 164.261 5.74121C164.251 5.63501 164.24 5.49007 164.23 5.30765C164.219 5.11524 164.198 4.95906 164.167 4.84161C164.086 4.49426 163.901 4.26687 163.614 4.15691C163.606 4.15442 163.598 4.14442 163.598 4.13442C163.598 4.12443 163.606 4.11568 163.614 4.11318C164.047 3.94076 164.263 3.61591 164.263 3.13987C164.263 2.74379 164.11 2.44518 163.804 2.24152C163.498 2.02786 163.119 1.92041 162.666 1.92041H160.939C160.774 1.92041 160.644 2.05535 160.644 2.22028V5.71122C160.644 5.8774 160.776 6.01109 160.939 6.01109ZM161.939 3.22983C161.939 3.06365 162.073 2.92996 162.237 2.92996H162.478C162.814 2.92996 162.982 3.05865 162.982 3.31604C162.982 3.57342 162.814 3.71711 162.478 3.71711H162.237C162.073 3.71711 161.939 3.58217 161.939 3.41724V3.23108V3.22983Z" fill="black"/>
<path d="M162.366 7.87299C163.43 7.87299 164.326 7.50315 165.053 6.76598C165.791 6.02756 166.157 5.10172 166.157 3.98972C166.157 2.87771 165.789 1.95187 165.053 1.21345C164.326 0.475031 163.43 0.106445 162.366 0.106445C161.302 0.106445 160.401 0.476281 159.663 1.21345C158.936 1.95187 158.573 2.87771 158.573 3.98972C158.573 5.10172 158.936 6.02756 159.663 6.76598C160.401 7.5044 161.302 7.87299 162.366 7.87299ZM160.185 1.69449C160.765 1.08476 161.492 0.779896 162.366 0.779896C163.24 0.779896 163.962 1.08476 164.531 1.69449C165.109 2.30422 165.398 3.06888 165.398 3.98972C165.398 4.91056 165.109 5.69146 164.531 6.30119C163.962 6.91092 163.24 7.21578 162.366 7.21578C161.492 7.21578 160.765 6.91092 160.185 6.30119C159.617 5.69146 159.332 4.9218 159.332 3.98972C159.332 3.05763 159.617 2.30422 160.185 1.69449Z" fill="black"/>
<path d="M167.015 24.803C164 24.5556 161.61 21.9855 161.378 18.7469C161.316 17.876 160.053 17.876 159.993 18.7469C159.761 21.9855 157.37 24.5556 154.356 24.803C153.454 24.8767 153.454 26.2173 154.356 26.291C157.37 26.5384 159.762 29.1085 159.993 32.3471C160.054 33.218 161.317 33.218 161.378 32.3471C161.61 29.1085 164 26.5384 167.015 26.291C167.919 26.2173 167.919 24.8767 167.015 24.803Z" fill="black"/>
<path d="M92.2802 0.524766C92.1679 0.209907 91.873 0 91.5422 0H86.9203C86.5895 0 86.2933 0.209907 86.181 0.526016L79.9805 17.9907H74.6761C74.2478 17.9907 73.901 17.6359 73.901 17.1961V0.80964C73.901 0.371085 73.5542 0.0149933 73.1272 0.0149933H69.1803C68.7533 0.0149933 68.4053 0.369835 68.4053 0.80964V21.9677C68.4053 22.4063 68.7521 22.7624 69.1803 22.7624H79.2832C79.3215 22.7674 79.3597 22.7711 79.3992 22.7711H83.3078C83.5238 22.7711 83.7225 22.6824 83.8669 22.5337C83.9545 22.445 84.0237 22.3351 84.0619 22.2089L84.4087 21.0919L84.9974 19.2164C85.1011 18.8866 85.4035 18.6629 85.7453 18.6629H92.4654C92.8048 18.6629 93.1071 18.8841 93.212 19.2114L94.1809 22.2226C94.2858 22.55 94.5869 22.7711 94.9275 22.7711H99.0916C99.6359 22.7711 100.015 22.2251 99.8296 21.7066L92.2802 0.524766ZM94.4487 10.7914L93.0121 10.9014C91.2189 11.0401 89.7959 12.4807 89.6589 14.2961L89.5503 15.7505C89.5219 16.1291 88.9727 16.1291 88.9443 15.7505L88.8554 14.5585L88.8468 14.4373C88.8468 14.4248 88.8443 14.4136 88.8431 14.4011L88.8357 14.2961C88.6987 12.4807 87.2757 11.0401 85.4812 10.9014L84.0446 10.7914C83.6707 10.7627 83.6707 10.2067 84.0446 10.178L85.4812 10.068C87.2745 9.92933 88.6975 8.48872 88.8357 6.67328L88.9443 5.21893C88.9727 4.84035 89.5219 4.84035 89.5503 5.21893L89.6589 6.67328C89.7959 8.48872 91.2189 9.92933 93.0121 10.068L94.4487 10.178C94.8226 10.2067 94.8226 10.7627 94.4487 10.7914Z" fill="black"/>
</svg>
