<svg width="1327" height="330" viewBox="0 0 1327 330" fill="none" xmlns="http://www.w3.org/2000/svg">
<g filter="url(#filter0_d_16354_8409)">
<path d="M154.921 113.375C154.727 113.311 154.578 113.116 154.578 112.903C154.578 112.708 154.708 112.523 154.903 112.43C169.305 106.749 177.738 96.2115 177.738 79.6314C177.738 66.2394 172.864 55.4054 163.383 47.4165C154.578 40.132 141.844 35.8965 124.708 35.8965H50.5936C47.4148 35.8965 44.8291 38.5286 44.8291 41.7724V198.167C44.8291 201.392 47.4148 204.024 50.5936 204.024H126.543C143.911 204.024 157.562 199.798 167.284 192.04C178.155 183.579 184.189 171.336 184.189 154.413C184.189 134.543 172.762 119.094 154.893 113.366H154.912L154.921 113.375ZM85.3293 74.7102C85.3293 71.485 87.915 68.8528 91.0939 68.8528H118.888C130.918 68.8528 138.563 74.9603 138.563 85.5349C138.563 96.1094 130.463 102.458 118.647 102.458H91.0846C87.9057 102.458 85.32 99.8258 85.32 96.6006V74.7009L85.3293 74.7102ZM121.928 170.66H91.1217C87.9428 170.66 85.3572 168.028 85.3572 164.802V136.582C85.3572 133.357 87.9428 130.725 91.1217 130.725H121.464C133.967 130.725 143.689 137.537 143.689 150.956C143.689 162.94 135.357 170.697 121.937 170.697V170.65L121.928 170.66Z" fill="#444444"/>
<path d="M226.682 35.9082H196.45C193.179 35.9082 190.51 38.5403 190.51 41.7655V198.16C190.51 201.385 193.16 204.017 196.45 204.017H226.682C229.954 204.017 232.623 201.385 232.623 198.16V41.7655C232.623 38.5403 229.972 35.9082 226.682 35.9082Z" fill="#444444"/>
<path d="M317.699 36.8496C268.812 36.8496 237.839 72.2527 237.839 119.898C237.839 167.544 268.84 202.947 317.699 202.947C366.559 202.947 397.801 167.544 397.801 119.898C397.801 72.2527 366.8 36.8496 317.699 36.8496ZM317.94 170.871C291.916 170.871 278.562 148.823 278.562 119.889C278.562 90.9551 291.916 68.6753 317.94 68.6753C343.964 68.6753 357.078 90.9366 357.078 119.889C357.078 148.842 344.196 170.871 317.94 170.871Z" fill="#444444"/>
<path d="M513.965 113.375C513.752 113.311 513.622 113.116 513.622 112.903C513.622 112.69 513.752 112.523 513.947 112.43C528.349 106.767 536.783 96.2115 536.783 79.6314C536.783 66.2394 531.908 55.4239 522.427 47.4165C513.622 40.132 500.888 35.8965 483.752 35.8965H409.656C406.477 35.8965 403.892 38.5286 403.892 41.7538V198.148C403.892 201.373 406.477 204.005 409.656 204.005H485.606C502.974 204.005 516.625 199.779 526.347 192.022C537.218 183.56 543.251 171.318 543.251 154.395C543.251 134.543 531.824 119.103 513.956 113.348V113.366L513.965 113.375ZM444.383 74.7102C444.383 71.485 446.968 68.8528 450.147 68.8528H477.941C489.989 68.8528 497.617 74.9603 497.617 85.5349C497.617 96.1094 489.517 102.458 477.7 102.458H450.138C446.959 102.458 444.373 99.8258 444.373 96.6006V74.7009L444.383 74.7102ZM480.981 170.66H450.175C446.996 170.66 444.41 168.028 444.41 164.802V136.582C444.41 133.357 446.996 130.725 450.175 130.725H480.518C493.02 130.725 502.742 137.537 502.742 150.956C502.742 162.94 494.41 170.715 480.972 170.715L480.99 170.65L480.981 170.66Z" fill="#444444"/>
<path d="M923.238 35.9058H894.693C891.487 35.9058 888.901 38.51 888.901 41.7352V115.108C888.901 120.539 889.309 138.287 889.374 140.743C889.374 140.892 889.244 141.021 889.096 141.021C888.984 141.021 888.901 140.956 888.864 140.873C887.983 139.251 879.976 124.163 877.557 119.761L830.088 38.7603C829.059 36.9902 827.159 35.8965 825.111 35.8965H792.914C789.708 35.8965 787.122 38.5008 787.122 41.726V197.073C787.122 200.298 789.726 202.902 792.914 202.902H821.459C824.666 202.902 827.252 200.298 827.252 197.073V125.118C827.252 119.668 826.844 100.632 826.779 98.065C826.779 97.9167 826.909 97.7869 827.057 97.7869C827.14 97.7869 827.252 97.8519 827.289 97.9353C828.141 99.6406 836.408 116.007 839.04 120.215L886.065 200.057C887.094 201.827 888.994 202.921 891.042 202.921H923.238C926.445 202.921 929.003 200.317 929.003 197.092V41.726C929.003 38.5008 926.417 35.8965 923.238 35.8965V35.9058Z" fill="#444444"/>
<path d="M1021.07 107.334C1019.51 105.045 1019.79 101.968 1021.67 99.9849L1072.99 45.8423C1076.51 42.1074 1073.89 35.9258 1068.76 35.9258H1035.83C1034.23 35.9258 1032.71 36.5838 1031.61 37.7608L985.945 86.1758C982.312 90.0219 975.88 87.4363 975.88 82.1351V41.8016C975.88 38.5765 973.276 35.9443 970.069 35.9443H940.394C937.169 35.9443 934.583 38.5765 934.583 41.8016V198.196C934.583 201.421 937.187 204.053 940.394 204.053H970.069C973.294 204.053 975.88 201.421 975.88 198.196V148.567C975.88 147.075 976.455 145.619 977.483 144.526L984.879 136.732C987.446 133.998 991.867 134.406 993.934 137.52L1036.26 201.467C1037.35 203.089 1039.17 204.071 1041.11 204.071H1075.1C1079.78 204.071 1082.56 198.817 1079.93 194.924L1021.02 107.344H1021.04L1021.06 107.325L1021.07 107.334Z" fill="#444444"/>
<path d="M1208.66 151.28H1208.68C1208.68 116.878 1180.76 107.647 1149.82 100.669C1124.91 95.2839 1112.13 92.5684 1112.13 81.308C1112.13 72.3089 1121.67 66.2478 1136.1 66.2478C1149.35 66.2478 1158.43 71.4194 1161.74 80.7799C1162.67 83.449 1165.05 85.5898 1167.98 85.5898H1197.03C1200.34 85.5898 1203.02 82.9021 1202.54 79.7325C1198.14 50.0107 1171.41 36.0996 1137.48 36.0996C1100.26 36.0996 1071.4 51.1599 1071.4 85.5805C1071.4 120.001 1101.9 127.888 1130.76 134.403C1153.55 139.788 1167.06 142.503 1167.06 155.321C1167.06 167.48 1153.79 172.197 1140.31 172.197C1122.68 172.197 1112.09 166.831 1108.67 154.19C1107.92 151.438 1105.51 149.232 1102.54 149.232H1072.26C1068.99 149.232 1066.34 151.836 1066.72 154.978C1070.51 186.813 1098.77 203.671 1140.54 203.671C1178.94 203.671 1208.72 184.996 1208.72 151.261L1208.65 151.28H1208.66Z" fill="#444444"/>
<path d="M1232.12 80.1318H1237.31C1238.53 80.1318 1239.49 79.131 1239.49 77.9077V72.1617C1239.49 70.9476 1240.47 69.9373 1241.69 69.9373H1242.75C1245.08 69.9373 1246.45 71.0032 1246.83 73.1441C1246.98 73.8485 1247.11 74.7936 1247.18 75.9892C1247.26 77.1662 1247.32 78.1301 1247.41 78.8344C1247.47 79.131 1247.56 79.3906 1247.62 79.5852C1247.79 79.993 1248.22 80.1226 1248.65 80.1226H1257.03C1257.26 80.1226 1257.45 79.928 1257.45 79.6963C1257.45 79.5295 1257.32 79.3719 1257.22 79.27C1256.96 79.0568 1256.78 78.6676 1256.65 78.1208C1256.58 77.333 1256.5 76.258 1256.42 74.9142C1256.33 73.5055 1256.18 72.347 1255.94 71.4759C1255.34 68.9087 1253.98 67.2498 1251.87 66.4342C1251.8 66.4342 1251.74 66.3507 1251.74 66.2672C1251.74 66.1838 1251.78 66.1376 1251.87 66.119C1255.07 64.8401 1256.65 62.4397 1256.65 58.9365C1256.65 56.0079 1255.52 53.8113 1253.27 52.3099C1251.01 50.7251 1248.21 49.9375 1244.88 49.9375H1232.12C1230.91 49.9375 1229.95 50.9383 1229.95 52.1617V77.9077C1229.95 79.1217 1230.93 80.1318 1232.12 80.1318ZM1239.51 59.6223C1239.51 58.4082 1240.49 57.3981 1241.71 57.3981H1243.48C1245.95 57.3981 1247.19 58.334 1247.19 60.2432C1247.19 62.1523 1245.95 63.1905 1243.48 63.1905H1241.71C1240.49 63.1905 1239.51 62.1894 1239.51 60.9661V59.5945V59.613V59.6223Z" fill="#444444"/>
<path d="M1242.65 93.8669C1250.5 93.8669 1257.12 91.1328 1262.46 85.7019C1267.91 80.2524 1270.62 73.4129 1270.62 65.2109C1270.62 57.0089 1267.91 50.1691 1262.46 44.7197C1257.09 39.2702 1250.5 36.5547 1242.65 36.5547C1234.81 36.5547 1228.15 39.2887 1222.72 44.7197C1217.35 50.1691 1214.68 57.0089 1214.68 65.2109C1214.68 73.4129 1217.35 80.2524 1222.72 85.7019C1228.17 91.1513 1234.81 93.8669 1242.65 93.8669ZM1226.57 48.2971C1230.84 43.793 1236.2 41.5502 1242.65 41.5502C1249.11 41.5502 1254.42 43.793 1258.61 48.2971C1262.89 52.8013 1265.03 58.4454 1265.03 65.2387C1265.03 72.032 1262.89 77.8058 1258.61 82.2914C1254.42 86.7955 1249.09 89.0384 1242.65 89.0384C1236.22 89.0384 1230.84 86.7955 1226.57 82.2914C1222.38 77.7872 1220.26 72.1247 1220.26 65.2387C1220.26 58.3527 1222.36 52.8013 1226.57 48.2971Z" fill="#444444"/>
<path d="M781.267 195.915L725.567 39.6507L725.613 39.6693C724.779 37.3431 722.601 35.8047 720.164 35.8047H686.068C683.63 35.8047 681.453 37.3431 680.618 39.6971L634.872 168.529H595.753C592.593 168.529 590.026 165.897 590.026 162.672V41.7824C590.026 38.5572 587.459 35.9251 584.317 35.9251H555.197C552.055 35.9251 549.47 38.5572 549.47 41.7824V197.88C549.47 201.105 552.037 203.737 555.197 203.737H629.738C630.016 203.784 630.294 203.802 630.591 203.802H659.414C661.017 203.802 662.472 203.144 663.538 202.05C664.177 201.392 664.687 200.577 664.965 199.659L667.504 191.411L671.842 177.565C672.611 175.128 674.835 173.487 677.356 173.487H726.92C729.423 173.487 731.665 175.109 732.435 177.528L739.571 199.752C740.34 202.171 742.583 203.793 745.085 203.793H775.808C779.821 203.793 782.62 199.752 781.257 195.934L781.267 195.915ZM741.721 115.267L731.017 116.082C717.634 117.102 707.18 127.556 706.16 140.939L705.345 151.624C705.261 152.718 704.307 153.608 703.204 153.608H703.185C702.082 153.598 701.146 152.709 701.072 151.606L700.257 140.939C699.237 127.556 688.783 117.102 675.401 116.082L664.715 115.267C663.603 115.183 662.713 114.201 662.741 113.089C662.769 111.977 663.677 111.05 664.789 110.994L675.41 110.188C688.792 109.169 699.247 98.7145 700.266 85.3318L701.082 74.646C701.165 73.5616 702.101 72.6813 703.195 72.672H703.213C704.307 72.672 705.252 73.5431 705.345 74.6274L706.16 85.341C707.18 98.7238 717.634 109.178 731.017 110.197L741.702 111.013C742.777 111.096 743.658 112.023 743.677 113.098C743.704 114.21 742.824 115.183 741.721 115.276V115.267Z" fill="#444444"/>
<path d="M1277.65 219.604C1266.61 218.761 1256.21 213.988 1248.38 206.157C1240.55 198.326 1235.78 187.936 1234.94 176.889C1234.75 174.452 1232.72 172.57 1230.27 172.57C1227.83 172.57 1225.8 174.452 1225.61 176.889C1224.77 187.927 1220 198.326 1212.16 206.157C1204.33 213.988 1193.94 218.761 1182.9 219.604C1180.46 219.79 1178.58 221.819 1178.58 224.266C1178.58 226.713 1180.46 228.743 1182.9 228.928C1193.93 229.771 1204.33 234.544 1212.16 242.375C1220 250.207 1224.77 260.596 1225.61 271.643C1225.8 274.081 1227.83 275.962 1230.27 275.962C1232.72 275.962 1234.75 274.081 1234.94 271.643C1235.78 260.605 1240.55 250.207 1248.38 242.375C1256.21 234.544 1266.6 229.771 1277.65 228.928C1280.09 228.743 1281.97 226.713 1281.97 224.266C1281.97 221.819 1280.09 219.79 1277.65 219.604Z" fill="#444444"/>
</g>
<defs>
<filter id="filter0_d_16354_8409" x="-0.000217438" y="-0.000547409" width="1326.8" height="329.817" filterUnits="userSpaceOnUse" color-interpolation-filters="sRGB">
<feFlood flood-opacity="0" result="BackgroundImageFix"/>
<feColorMatrix in="SourceAlpha" type="matrix" values="0 0 0 0 0 0 0 0 0 0 0 0 0 0 0 0 0 0 127 0" result="hardAlpha"/>
<feOffset dy="9.02408"/>
<feGaussianBlur stdDeviation="22.4147"/>
<feComposite in2="hardAlpha" operator="out"/>
<feColorMatrix type="matrix" values="0 0 0 0 1 0 0 0 0 1 0 0 0 0 1 0 0 0 0.25 0"/>
<feBlend mode="normal" in2="BackgroundImageFix" result="effect1_dropShadow_16354_8409"/>
<feBlend mode="normal" in="SourceGraphic" in2="effect1_dropShadow_16354_8409" result="shape"/>
</filter>
</defs>
</svg>
